<?xml version="1.0" encoding="UTF-8" standalone="no"?>
<!-- Created with Inkscape (http://www.inkscape.org/) -->

<svg
   width="118.72864mm"
   height="45.105511mm"
   viewBox="0 0 118.72864 45.105511"
   version="1.1"
   id="svg1"
   xml:space="preserve"
   xmlns="http://www.w3.org/2000/svg"
   xmlns:svg="http://www.w3.org/2000/svg"><defs
     id="defs1" /><g
     id="layer2"
     transform="translate(252.68002,-82.046311)"><g
       id="g14"
       transform="translate(3.4755409,-1.5610815)"><path
         style="-inkscape-font-specification:'Eurostile Extended, Normal';fill:#3234d0;fill-opacity:1"
         d="m -183.80583,90.831202 c -3.26509,0.15811 -8.13953,-0.43302 -9.9668,3.003908 -0.45872,0.93987 -0.66016,2.0468 -0.66016,3.30468 0,1.65395 0.54866,3.09007 1.71875,3.91602 1.10008,0.77652 2.54038,1.09766 4.25977,1.09766 2.80779,0.10367 5.61659,0.14114 8.42578,0.17773 1.61501,-0.0267 2.69533,0.0785 2.74233,1.82033 0,1.05702 -0.0734,1.67788 -2.27539,1.95313 -1.14184,0.14474 -2.58809,0.2207 -4.32031,0.2207 -2.28114,0 -6.00614,-0.1004 -6.30274,-0.74805 -0.22876,-0.94752 -0.16406,-1.94008 -0.16406,-2.9082 h -4.05859 c -0.0184,1.85687 -0.0482,3.80397 1.04492,5.39258 l 0.004,0.004 0.004,0.006 c 1.37099,1.57514 3.30104,2.0332 9.37114,2.0332 5.52726,0.0494 8.86876,-0.23981 10.25224,-2.93759 l 0.002,-0.006 c 0.40128,-0.86593 0.57617,-1.87301 0.57617,-3.00977 0,-1.71445 -0.35632,-3.12079 -1.32422,-4.04492 -0.83392,-0.8272 -1.95601,-1.30833 -3.22461,-1.44531 h -0.002 c -1.09526,-0.11976 -1.92026,-0.19044 -2.51367,-0.20899 -2.1909,-0.0685 -3.39087,0.0579 -7.7149,-0.0508 -1.48011,0 -2.30767,-0.26421 -2.33987,-1.66796 -0.007,-0.67515 0.0418,-1.21296 0.66992,-1.52149 1.30792,-0.57221 5.58943,-0.57617 5.66992,-0.57617 4.32452,0 5.77639,0.26582 6.10049,0.78524 0.25438,0.72805 0.18983,1.52585 0.18983,2.28711 h 4.05859 c 0.0558,-1.77531 -0.0799,-3.57202 -1.25,-4.998039 -1.25986,-1.31591 -2.80789,-1.878909 -8.97073,-1.878909 z m -65.54115,0.17773 v 18.943358 h 17.44345 v -3.70312 h -13.3868 V 91.008932 Z m 26.25014,0 v 18.943358 h 18.96874 v -3.70312 h -14.91015 v -4.22266 h 14.19726 v -3.70117 h -14.19726 v -3.58789 h 14.73242 v -3.728518 z m 59.89452,0 v 18.943358 h 18.9668 v -3.70312 h -14.91016 v -4.22266 h 14.19922 v -3.70117 h -14.19922 v -3.58789 h 14.73243 v -3.728518 z"
         id="path14-9-4-0-60-9" /><path
         style="opacity:1;fill:none;fill-opacity:1;stroke:#3235d1;stroke-width:2.64583;stroke-linecap:round;stroke-linejoin:round;stroke-miterlimit:0;stroke-dasharray:none;stroke-opacity:1;paint-order:normal"
         id="rect13-5"
         width="116.08282"
         height="31.080273"
         x="-116.39787"
         y="53.261242"
         d="M -111.10621,53.261242 H -5.6067223 a 5.2916665,5.2916665 45 0 1 5.29166645,5.291666 v 20.49694 A 5.2916665,5.2916665 135 0 1 -5.6067223,84.341515 H -111.10621 a 5.2916665,5.2916665 45 0 1 -5.29166,-5.291667 v -20.49694 a 5.2916665,5.2916665 135 0 1 5.29166,-5.291666 z"
         transform="translate(-138.43479,31.669063)" /></g></g><path
     style="-inkscape-font-specification:'Eurostile Extended';fill:#3234d0;fill-opacity:1;stroke-linecap:round;stroke-linejoin:round;stroke-miterlimit:0"
     d="m 67.561269,38.123209 c -0.94348,-0.004 -1.36058,0.0145 -1.80664,0.0586 -0.002,0 -0.003,0.002 -0.006,0.002 -0.59947,9.4e-4 -1.08345,0.11401 -1.44141,0.35742 -0.35776,0.24328 -0.58674,0.61032 -0.67773,1.07227 -0.17403,0.70869 -0.15914,1.43461 -0.16019,2.1582 -2e-5,0.001 -2e-5,0.003 0,0.004 0.0356,0.92653 -0.0844,1.89557 0.51367,2.66796 0.3202,0.34359 0.79515,0.54017 1.40234,0.60157 0.73512,0.0525 1.47228,0.0656 2.20905,0.0585 0.56981,-0.0139 1.14561,-0.007 1.71404,-0.028 0.9383,-0.002 1.57044,-0.14535 1.88166,-0.51103 0.30273,-0.3557 0.42578,-0.96763 0.42578,-1.84375 2.8e-4,-0.0735 -0.0593,-0.13309 -0.13281,-0.13281 h -0.83008 c -0.0727,7.9e-4 -0.13114,0.0601 -0.13086,0.13281 0.009,0.43089 0.0159,0.95513 -0.29297,1.19922 -0.17864,0.14116 -0.60002,0.19922 -1.19531,0.19922 -0.4909,0.006 -0.9818,0.013 -1.4727,0.0195 l -1.53907,-0.0195 c -0.54023,0 -1.05493,-0.091 -1.22656,-0.4043 -0.14255,-0.27369 -0.23242,-0.83838 -0.23242,-1.66601 0,-0.90864 0.0193,-1.35453 0.0782,-1.92383 0.0707,-0.6832 0.24372,-0.90352 1.26177,-0.98638 0.71058,-0.0625 0.99607,-0.0606 1.62317,-0.0606 0.63558,0 1.66297,0.0235 2.0155,0.0684 0.83645,0.10645 0.9415,0.21948 0.9415,1.27152 -2.9e-4,0.0727 0.0582,0.13202 0.13086,0.13282 h 0.79101 c 0.0735,2.8e-4 0.1331,-0.0594 0.13281,-0.13282 0,-0.58457 -0.0777,-1.05839 -0.24023,-1.42578 -0.3651,-0.71954 -1.1288,-0.78509 -1.84777,-0.84961 h -0.004 c -0.2425,-0.02 -1.88477,-0.0195 -1.88477,-0.0195 z m -63.3439302,0.0586 c -0.0735,-2.8e-4 -0.1331,0.0594 -0.13282,0.13281 v 6.58789 c -2.8e-4,0.0735 0.0593,0.1331 0.13282,0.13282 h 0.80078 c 0.0727,-8e-4 0.13114,-0.0601 0.13086,-0.13282 v -5.49418 l 3.86914,5.57032 c 0.0245,0.0352 0.0645,0.0563 0.10742,0.0566 h 0.64257 c 0.0436,2.7e-4 0.0845,-0.0209 0.10938,-0.0566 l 3.8769502,-5.56836 v 5.49218 c -2.8e-4,0.0735 0.0594,0.1331 0.13281,0.13282 h 0.80079 c 0.0727,-8e-4 0.13114,-0.0601 0.13085,-0.13282 v -6.58789 c 2.9e-4,-0.0727 -0.0582,-0.13202 -0.13085,-0.13281 h -1.28516 c -0.0429,3.6e-4 -0.0829,0.0215 -0.10742,0.0566 l -3.8418002,5.49414 -3.82421,-5.49414 c -0.0249,-0.0357 -0.0658,-0.0569 -0.10938,-0.0566 z m 13.8422802,0 c -0.0735,-2.8e-4 -0.1331,0.0594 -0.13282,0.13281 v 6.58789 c -2.8e-4,0.0735 0.0593,0.1331 0.13282,0.13282 h 6.59765 c 0.0735,2.8e-4 0.1331,-0.0594 0.13282,-0.13282 v -0.66211 c -8e-4,-0.0727 -0.0601,-0.13114 -0.13282,-0.13085 h -5.66601 v -2.15625 h 5.39062 c 0.0735,2.8e-4 0.1331,-0.0593 0.13282,-0.13282 v -0.66015 c 2.8e-4,-0.0735 -0.0594,-0.1331 -0.13282,-0.13282 h -5.39062 v -1.9082 h 5.59765 c 0.0735,2.8e-4 0.1331,-0.0593 0.13282,-0.13281 v -0.67188 c 2.8e-4,-0.0735 -0.0593,-0.13309 -0.13282,-0.13281 z m 9.57331,0 c -0.0735,-2.8e-4 -0.1331,0.0594 -0.13281,0.13281 v 0.67188 c -2.9e-4,0.0735 0.0593,0.13309 0.13281,0.13281 h 3.18554 v 5.7832 c -2.8e-4,0.0735 0.0593,0.1331 0.13282,0.13282 h 0.79883 c 0.0735,2.8e-4 0.13309,-0.0594 0.13281,-0.13282 v -5.7832 h 3.20703 c 0.0735,2.8e-4 0.13309,-0.0593 0.13281,-0.13281 v -0.67188 c 2.8e-4,-0.0735 -0.0593,-0.13309 -0.13281,-0.13281 z m 12.92834,0 c -0.0476,-1.8e-4 -0.0916,0.0252 -0.11524,0.0664 l -3.89062,6.58789 c -0.0515,0.0879 0.0114,0.19856 0.11328,0.19922 h 0.93945 c 0.0469,-5.1e-4 0.09,-0.0258 0.11329,-0.0664 l 0.80273,-1.41602 h 5.16992 l 0.82227,1.41602 c 0.0233,0.0406 0.0664,0.0659 0.11328,0.0664 h 0.91992 c 0.10186,-6.6e-4 0.16481,-0.11135 0.11328,-0.19922 l -3.92187,-6.58985 c -0.0238,-0.0399 -0.0668,-0.0644 -0.11328,-0.0645 z m 8.35547,0 c -0.0735,-2.8e-4 -0.1331,0.0594 -0.13281,0.13281 v 6.58789 c -2.9e-4,0.0735 0.0593,0.1331 0.13281,0.13282 h 6.0039 c 0.0735,2.8e-4 0.1331,-0.0594 0.13282,-0.13282 v -0.66211 c -8e-4,-0.0727 -0.0601,-0.13114 -0.13282,-0.13086 h -5.07226 v -5.79492 c 2.8e-4,-0.0735 -0.0593,-0.13309 -0.13281,-0.13281 z m 25.8504,0 c -0.0735,-2.8e-4 -0.1331,0.0594 -0.13282,0.13281 v 6.58789 c -2.8e-4,0.0735 0.0594,0.1331 0.13282,0.13282 h 0.80078 c 0.0735,2.8e-4 0.13309,-0.0594 0.13281,-0.13282 v -2.5332 h 4.36133 c 1.06622,0 1.25981,0.30824 1.25981,1.07227 v 1.46093 c -2.8e-4,0.0735 0.0593,0.1331 0.13281,0.13282 h 0.79102 c 0.0727,-8e-4 0.13086,-0.0601 0.13086,-0.13282 v -1.78711 c 0,-0.43104 -0.11462,-0.76292 -0.3711,-0.94726 -0.1549,-0.11911 -0.42975,-0.16681 -0.67968,-0.23047 0.97773,-0.14377 1.14272,-0.7615 1.16992,-1.66797 0,-0.78932 -0.17689,-1.35321 -0.57422,-1.6543 -3.9e-4,-3.1e-4 -0.002,3.1e-4 -0.002,0 -0.38166,-0.30022 -0.97815,-0.43359 -1.78906,-0.43359 z m 14.59765,0 c -0.0469,5.1e-4 -0.09,0.0258 -0.11328,0.0664 l -3.89258,6.58789 c -0.052,0.0886 0.0125,0.20007 0.11524,0.19922 h 0.9375 c 0.0476,1.8e-4 0.0916,-0.0252 0.11523,-0.0664 l 0.80078,-1.41602 h 5.17188 l 0.82031,1.41602 c 0.0237,0.0412 0.0677,0.0666 0.11524,0.0664 h 0.91796 c 0.10273,8.5e-4 0.1672,-0.1106 0.11524,-0.19922 l -3.92188,-6.58984 c -0.0238,-0.0399 -0.0668,-0.0643 -0.11328,-0.0645 z m 8.35547,0 c -0.0735,-2.8e-4 -0.13309,0.0594 -0.13281,0.13281 v 6.58789 c -2.8e-4,0.0735 0.0593,0.1331 0.13281,0.13282 h 0.80078 c 0.0735,2.8e-4 0.1331,-0.0594 0.13282,-0.13282 v -2.91992 h 5.082031 c 0.0727,2.9e-4 0.13202,-0.0582 0.13281,-0.13086 v -0.66211 c 2.8e-4,-0.0735 -0.0593,-0.13309 -0.13281,-0.13281 h -5.082031 v -1.9375 h 5.359371 c 0.0727,-7.9e-4 0.13114,-0.0601 0.13086,-0.13281 v -0.67188 c 2.8e-4,-0.0727 -0.0582,-0.13202 -0.13086,-0.13281 z m 9.333991,0 c -0.0735,-2.8e-4 -0.1331,0.0594 -0.13282,0.13281 v 0.67188 c -2.8e-4,0.0735 0.0593,0.13309 0.13282,0.13281 h 3.18554 v 5.7832 c -2.8e-4,0.0735 0.0593,0.1331 0.13282,0.13282 h 0.80078 c 0.0727,-8e-4 0.13114,-0.0601 0.13086,-0.13282 v -5.7832 h 3.20703 c 0.0735,2.8e-4 0.13309,-0.0593 0.13281,-0.13281 v -0.67188 c 2.8e-4,-0.0735 -0.0593,-0.13309 -0.13281,-0.13281 z m -31.353521,0.9375 h 4.26172 c 1.28193,0 1.4395,0.37814 1.4395,1.10161 0,0.90761 -0.26599,1.2207 -1.41992,1.2207 h -4.2813 z m -34.60626,0.0371 2.06836,3.4707 h -4.10937 z m 48.80548,0.002 2.06836,3.46875 h -4.10938 z"
     id="text3-0-7-5-4-3-5" /></svg>
